# xmcd
#
# Track frame offsets: 
#        150
#        20358
#        53508
#        72878
#        99210
#        122785
#        156360
#        178663
#
# Disc length: 2706 seconds
#
# Revision: 0
# Processed by: cddbd v1.5.1PL0 Copyright (c) Steve Scherf et al.
# Submitted via: ExactAudioCopy v0.95a5
#
DISCID=5e0a9008
DTITLE=Travis "Moonchild" Haddix - Wrong Side Out
DYEAR=1988
DGENRE=Blues
TTITLE0=Caught In The Middle
TTITLE1=Nobody Wants You When You're Old and Grey
TTITLE2=Old Time Music
TTITLE3=Two Heads Are Better Than One
TTITLE4=Wrong Side Out
TTITLE5=Time To Take Charge
TTITLE6=Old Cliche
TTITLE7=Don't Take Everything Away From Me
EXTD=
EXTT0=
EXTT1=
EXTT2=
EXTT3=
EXTT4=
EXTT5=
EXTT6=
EXTT7=
PLAYORDER=
